<svg width="16" height="16" viewBox="0 0 16 16" fill="none" xmlns="http://www.w3.org/2000/svg">
<path d="M8.00016 6.9585C8.34534 6.9585 8.62516 7.23832 8.62516 7.5835V11.7502C8.62516 12.0953 8.34534 12.3752 8.00016 12.3752C7.65498 12.3752 7.37516 12.0953 7.37516 11.7502V7.5835C7.37516 7.23832 7.65498 6.9585 8.00016 6.9585Z" fill="#0B7AB3"/>
<path d="M8.00016 5.50016C8.4604 5.50016 8.8335 5.12707 8.8335 4.66683C8.8335 4.20659 8.4604 3.8335 8.00016 3.8335C7.53993 3.8335 7.16683 4.20659 7.16683 4.66683C7.16683 5.12707 7.53993 5.50016 8.00016 5.50016Z" fill="#0B7AB3"/>
<path fill-rule="evenodd" clip-rule="evenodd" d="M0.708496 8.00016C0.708496 3.97309 3.97309 0.708496 8.00016 0.708496C12.0272 0.708496 15.2918 3.97309 15.2918 8.00016C15.2918 12.0272 12.0272 15.2918 8.00016 15.2918C3.97309 15.2918 0.708496 12.0272 0.708496 8.00016ZM8.00016 1.9585C4.66344 1.9585 1.9585 4.66344 1.9585 8.00016C1.9585 11.3369 4.66344 14.0418 8.00016 14.0418C11.3369 14.0418 14.0418 11.3369 14.0418 8.00016C14.0418 4.66344 11.3369 1.9585 8.00016 1.9585Z" fill="#0B7AB3"/>
</svg>
