<svg width="14" height="18" viewBox="0 0 14 18" fill="none" xmlns="http://www.w3.org/2000/svg">
<path d="M5.74993 12.3331C5.74993 11.6427 6.30957 11.0831 6.99993 11.0831C7.69028 11.0831 8.24993 11.6427 8.24993 12.3331C8.24993 13.0235 7.69028 13.5831 6.99993 13.5831C6.30957 13.5831 5.74993 13.0235 5.74993 12.3331Z" fill="#0B7AB3"/>
<path fill-rule="evenodd" clip-rule="evenodd" d="M3.35131 7.83072L3.08844 5.46491C3.05474 5.16159 3.05474 4.85548 3.08844 4.55216L3.10741 4.38141C3.30865 2.57026 4.73248 1.13721 6.54231 0.924286C6.84633 0.888519 7.15349 0.888519 7.45751 0.924286C9.26733 1.13721 10.6912 2.57026 10.8924 4.38141L10.9114 4.55216C10.9451 4.85548 10.9451 5.16159 10.9114 5.46491L10.6485 7.83071L11.2207 7.87639C12.123 7.94842 12.8597 8.62667 13.006 9.51992C13.311 11.383 13.311 13.2832 13.006 15.1463C12.8597 16.0395 12.123 16.7178 11.2207 16.7898L9.97391 16.8893C7.99442 17.0474 6.00548 17.0474 4.026 16.8893L2.77922 16.7898C1.87695 16.7178 1.14019 16.0395 0.993932 15.1463C0.688872 13.2832 0.688872 11.383 0.993932 9.51992C1.14019 8.62667 1.87695 7.94842 2.77922 7.87639L3.35131 7.83072ZM6.68836 2.16572C6.89534 2.14137 7.10447 2.14137 7.31146 2.16572C8.54365 2.31069 9.51304 3.28636 9.65005 4.51945L9.66903 4.6902C9.69253 4.90177 9.69253 5.1153 9.66903 5.32687L9.40139 7.73557C7.80206 7.63259 6.19776 7.63259 4.59843 7.73558L4.33079 5.32687C4.30728 5.1153 4.30728 4.90177 4.33079 4.6902L4.34976 4.51945C4.48677 3.28636 5.45617 2.31069 6.68836 2.16572ZM9.87443 9.02289C7.96115 8.87015 6.03875 8.87015 4.12547 9.02289L2.87869 9.12243C2.54959 9.1487 2.28085 9.3961 2.2275 9.72191C1.94435 11.4512 1.94435 13.215 2.2275 14.9443C2.28085 15.2701 2.54959 15.5175 2.8787 15.5438L4.12547 15.6433C6.03875 15.796 7.96116 15.796 9.87443 15.6433L11.1212 15.5438C11.4503 15.5175 11.719 15.2701 11.7724 14.9443C12.0556 13.215 12.0556 11.4512 11.7724 9.72191C11.719 9.3961 11.4503 9.1487 11.1212 9.12243L9.87443 9.02289Z" fill="#0B7AB3"/>
</svg>
