<svg width="72" height="80" viewBox="0 0 72 80" fill="none" xmlns="http://www.w3.org/2000/svg">
<rect width="72" height="80" rx="36" fill="#216F5A"/>
<rect width="72" height="72" rx="36" fill="#22856A"/>
<path d="M28.0594 23.7929C33.6756 23.3047 39.3236 23.3047 44.9398 23.7929L47.6456 24.0281C49.4469 24.1847 50.9897 25.2591 51.789 26.796C51.8913 26.9926 51.8146 27.2306 51.6262 27.3473L40.3997 34.297C37.9919 35.7875 34.9559 35.8188 32.518 34.3782L21.2165 27.7C21.0339 27.5921 20.9501 27.37 21.0323 27.1746C21.7636 25.4374 23.4077 24.1973 25.3535 24.0281L28.0594 23.7929Z" fill="white"/>
<path d="M21.0231 30.7074C20.7437 30.5423 20.3872 30.72 20.3546 31.0429C19.9 35.5501 20.01 40.1 20.6847 44.5865C21.0403 46.9517 22.9707 48.7649 25.3535 48.9721L28.0594 49.2073C33.6756 49.6955 39.3236 49.6955 44.9398 49.2073L47.6457 48.9721C50.0285 48.7649 51.9588 46.9517 52.3145 44.5865C53.0088 39.9692 53.1051 35.2849 52.6034 30.649C52.5682 30.3238 52.2056 30.1494 51.9275 30.3216L41.8143 36.5821C38.5567 38.5987 34.4492 38.641 31.1508 36.6919L21.0231 30.7074Z" fill="white"/>
</svg>
