<svg width="72" height="80" viewBox="0 0 72 80" fill="none" xmlns="http://www.w3.org/2000/svg">
<rect width="72" height="80" rx="36" fill="#216F5A"/>
<rect width="72" height="72" rx="36" fill="#22856A"/>
<path fill-rule="evenodd" clip-rule="evenodd" d="M29.7812 23.9583C29.7812 21.2372 31.9872 19.0312 34.7083 19.0312H38.2917C41.0128 19.0312 43.2188 21.2372 43.2188 23.9583V27.5417C43.2188 28.2838 42.6171 28.8854 41.875 28.8854H31.125C30.3829 28.8854 29.7812 28.2838 29.7812 27.5417V23.9583ZM34.7083 21.7188C33.4714 21.7188 32.4688 22.7214 32.4688 23.9583V26.1979H40.5312V23.9583C40.5312 22.7214 39.5286 21.7188 38.2917 21.7188H34.7083Z" fill="white"/>
<path fill-rule="evenodd" clip-rule="evenodd" d="M26.6224 23.8307C26.8489 23.7221 27.1004 23.895 27.0999 24.1461L27.0938 27.5417C27.0938 29.7681 28.8986 31.5729 31.125 31.5729H41.875C44.1014 31.5729 45.9062 29.7681 45.9062 27.5417V24.1451C45.9062 23.8942 46.1575 23.7218 46.3838 23.8303C48.5071 24.8482 49.9375 27.0163 49.9375 29.4864V48.28C49.9375 51.3451 47.6544 53.9303 44.6127 54.3091C39.2251 54.9801 33.7749 54.9801 28.3873 54.3091C25.3456 53.9303 23.0625 51.3451 23.0625 48.28V29.4864C23.0625 27.0166 24.4987 24.8488 26.6224 23.8307ZM41.875 36.5C42.6171 36.5 43.2188 37.1016 43.2188 37.8438C43.2188 38.5859 42.6171 39.1875 41.875 39.1875H31.125C30.3829 39.1875 29.7812 38.5859 29.7812 37.8438C29.7812 37.1016 30.3829 36.5 31.125 36.5H41.875ZM40.0833 41.875C40.8255 41.875 41.4271 42.4766 41.4271 43.2188C41.4271 43.9609 40.8255 44.5625 40.0833 44.5625H31.125C30.3829 44.5625 29.7812 43.9609 29.7812 43.2188C29.7812 42.4766 30.3829 41.875 31.125 41.875H40.0833Z" fill="white"/>
</svg>
