<svg width="72" height="80" viewBox="0 0 72 80" fill="none" xmlns="http://www.w3.org/2000/svg">
<rect width="72" height="80" rx="36" fill="#216F5A"/>
<rect width="72" height="72" rx="36" fill="#22856A"/>
<path d="M26.9902 28.6169C26.9902 30.3486 28.394 31.7524 30.1256 31.7524H40.8756C42.6073 31.7524 44.011 30.3486 44.011 28.6169V22.662C44.011 22.3886 44.2327 22.167 44.506 22.167C44.7675 22.167 45.0158 22.2812 45.186 22.4796L50.4941 28.6684C51.2298 29.5261 51.6141 30.6302 51.57 31.7593L50.9579 47.4252C50.864 49.8291 48.8879 51.7295 46.4821 51.7295H45.8027C45.308 51.7295 44.9069 51.3284 44.9069 50.8337V41.8753C44.9069 40.1437 43.5031 38.7399 41.7715 38.7399H29.2298C27.4982 38.7399 26.0944 40.1437 26.0944 41.8753V50.8337C26.0944 51.3284 25.6933 51.7295 25.1986 51.7295H24.9529C22.7961 51.7295 20.9752 50.1268 20.7013 47.9874C19.8163 41.0751 19.7782 34.0807 20.5878 27.1591L20.6968 26.2265C20.9675 23.912 22.9285 22.167 25.2588 22.167H26.0944C26.5891 22.167 26.9902 22.5681 26.9902 23.0628V28.6169Z" fill="white"/>
<path d="M28.7819 50.8337C28.7819 51.3284 29.183 51.7295 29.6777 51.7295H41.3235C41.8183 51.7295 42.2194 51.3284 42.2194 50.8337V41.8753C42.2194 41.6279 42.0188 41.4274 41.7715 41.4274H29.2298C28.9824 41.4274 28.7819 41.6279 28.7819 41.8753V50.8337Z" fill="white"/>
<path d="M41.3235 23.0628C41.3235 22.5681 40.9225 22.167 40.4277 22.167H30.5735C30.0788 22.167 29.6777 22.5681 29.6777 23.0628V28.6169C29.6777 28.8643 29.8783 29.0649 30.1256 29.0649H40.8756C41.123 29.0649 41.3235 28.8643 41.3235 28.6169V23.0628Z" fill="white"/>
</svg>
